# xmcd
#
# Track frame offsets:
# 150
# 16810
# 38853
# 58465
# 77499
# 95581
# 114934
# 133433
# 153486
# 170980
# 192234
# 206701
# 237294
# 258832
# 279326
# 314574
#
# Disc length: 4460 seconds
#
#
# Revision: 0
# Processed by: cddbd v1.5.1PL2 Copyright (c) Steve Scherf et al.
# Submitted via: FreeRIP 2.941 
#
DISCID=e7116a10
DTITLE=Haila - Diferente
DYEAR=1900
DGENRE=Latin
TTITLE0=solita
TTITLE1=como voy a decirte
TTITLE2=esto si sabe a cuba
TTITLE3=quien fue
TTITLE4=mi alma duele
TTITLE5=sólo dime
TTITLE6=soy la mujer
TTITLE7=voy a salvar mi corazon
TTITLE8=amor dos veces
TTITLE9=mi alma duele (remix)
TTITLE10=freddy
TTITLE11=bonus 1
TTITLE12=bonus 2
TTITLE13=bonus 3
TTITLE14=bonus 4
TTITLE15=bonus 5
EXTD=
EXTT0=
EXTT1=
EXTT2=
EXTT3=
EXTT4=
EXTT5=
EXTT6=
EXTT7=
EXTT8=
EXTT9=
EXTT10=
EXTT11=
EXTT12=
EXTT13=
EXTT14=
EXTT15=
PLAYORDER=
